<svg xmlns="http://www.w3.org/2000/svg" width="655" height="655"  class="bi bi-play-fill" viewBox="0 0 655 655">
 <svg xmlns="http://www.w3.org/2000/svg" width="16" height="16" id="play-button" fill="#6F78CA"  viewBox="0 0 16 16" x="0" y="0">
  <path d="m11.596 8.697-6.363 3.692c-.54.313-1.233-.066-1.233-.697V4.308c0-.63.692-1.01 1.233-.696l6.363 3.692a.802.802 0 0 1 0 1.393z"/>
</svg>
	 <svg xmlns="http://www.w3.org/2000/svg" width="16" height="16" id="play-button2" fill="#000000"  viewBox="0 0 16 16" x="20" y="20">
  <path d="m11.596 8.697-6.363 3.692c-.54.313-1.233-.066-1.233-.697V4.308c0-.63.692-1.01 1.233-.696l6.363 3.692a.802.802 0 0 1 0 1.393z"/>
</svg>
</svg>